<svg width="21" height="20" viewBox="0 0 21 20" fill="none" xmlns="http://www.w3.org/2000/svg">
<path d="M8.48235 16.4718C3.93759 16.4718 0.240173 12.7772 0.240173 8.23588C0.240173 3.69459 3.93759 0 8.48235 0C13.0271 0 16.7245 3.69459 16.7245 8.23588C16.7245 12.7772 13.0271 16.4718 8.48235 16.4718ZM8.48235 1.5613C4.79915 1.5613 1.80267 4.5555 1.80267 8.23588C1.80267 11.9163 4.79915 14.9105 8.48235 14.9105C12.1656 14.9105 15.162 11.9163 15.162 8.23588C15.162 4.5555 12.1656 1.5613 8.48235 1.5613ZM20.0114 19.7713C20.3164 19.4665 20.3164 18.9722 20.0114 18.6673L16.5153 15.1739C16.2102 14.869 15.7155 14.869 15.4104 15.1739C15.1053 15.4788 15.1053 15.9731 15.4104 16.2779L18.9065 19.7713C19.059 19.9238 19.259 20 19.4589 20C19.6589 20 19.8588 19.9238 20.0114 19.7713Z" fill="#31352B"/>
</svg>
