<svg width="37" height="40" viewBox="0 0 37 40" fill="none" xmlns="http://www.w3.org/2000/svg">
<path opacity="0.2" d="M36.4321 39.3777C36.4321 39.0366 28.7826 38.7557 19.3576 38.7557C9.93273 38.7557 2.2832 39.0366 2.2832 39.3777C2.2832 39.7189 9.93273 39.9998 19.3576 39.9998C28.8045 39.9998 36.4321 39.7189 36.4321 39.3777Z" fill="#5D5D5D"/>
<path d="M19.599 7.87299C27.0293 7.87299 33.0569 13.3913 33.0569 20.194V32.5149H19.599C12.1687 32.5149 6.14111 26.9966 6.14111 20.194V7.87299H19.599Z" fill="white"/>
<path opacity="0.3" d="M31.1281 13.8527C30.0103 15.0366 29.3308 16.5818 29.3308 18.2674C29.3308 20.7757 30.8212 22.963 33.0349 24.147V20.1938C33.0349 17.8861 32.3555 15.7189 31.1281 13.8527Z" fill="white"/>
<path d="M25.8456 9.29767C23.7414 10.4013 22.3386 12.4682 22.3386 14.8562C22.3386 18.3879 25.473 21.2575 29.3306 21.2575C30.6895 21.2575 31.9608 20.8963 33.0348 20.2742V20.1939C33.0348 15.4582 30.1196 11.3445 25.8456 9.29767Z" fill="white"/>
<path opacity="0.5" d="M15.2811 10.2603C11.818 10.2603 8.6398 11.3639 6.14111 13.2301V20.2134C6.14111 27.016 12.1687 32.5344 19.599 32.5344H26.043C28.3882 30.1665 29.8129 27.0361 29.8129 23.5846C29.8129 16.2201 23.3032 10.2603 15.2811 10.2603Z" fill="#F8F6EC"/>
<path d="M33.0349 32.4949L19.599 32.515C12.1687 32.515 6.14111 26.9966 6.14111 20.194V7.89307L33.0349 32.4949Z" fill="white"/>
<path opacity="0.3" d="M8.22339 12.2878C8.22339 21.6389 16.5085 29.2041 26.7005 29.2041C27.5773 29.2041 28.4321 29.1439 29.265 29.0436L8.39874 9.96002C8.28914 10.7226 8.22339 11.5052 8.22339 12.2878Z" fill="white"/>
<path opacity="0.3" d="M33.0349 32.5149L6.25073 7.99335C9.40697 12.3077 13.0454 16.6823 16.7496 20.2943C19.6428 23.1036 27.9937 29.3845 33.0349 32.5149Z" fill="white"/>
<path opacity="0.3" d="M14.9304 15.9198L6.14111 7.89307V20.214C6.14111 25.6521 9.99876 30.2675 15.3249 31.8929C13.0454 29.7859 11.6426 26.8962 11.6426 23.7257C11.6426 20.7157 12.892 17.9866 14.9304 15.9198Z" fill="white"/>
<path opacity="0.3" d="M26.8978 26.8963C24.6183 29.4448 21.1552 31.0903 17.2757 31.0903C14.6893 31.0903 12.2783 30.3679 10.2837 29.1237C12.6947 31.2307 15.9606 32.5351 19.5771 32.5351H33.035V32.515L26.8978 26.8963Z" fill="white"/>
<path opacity="0.3" d="M6.93018 15.2576C6.93018 13.271 7.30279 11.3446 8.00418 9.57868L6.14111 7.89307V20.2141C6.14111 27.0167 12.1687 32.5351 19.599 32.5351H33.0569V32.515L31.7199 31.291C29.7691 31.9331 27.6869 32.2742 25.4951 32.2742C15.2372 32.2542 6.93018 24.6488 6.93018 15.2576Z" fill="#F8F6EC"/>
<path d="M32.8155 34.9029C33.758 34.6621 34.7443 35.1839 34.9854 36.0468C35.2484 36.9096 34.6785 37.8127 33.7141 38.0334C32.7716 38.2742 31.7853 37.7525 31.5442 36.8896C31.3031 36.0267 31.873 35.1437 32.8155 34.9029ZM32.4648 33.6789C30.7771 34.1003 29.7688 35.6655 30.2291 37.2106C30.6675 38.7558 32.399 39.6789 34.0867 39.2575C35.7744 38.8361 36.7827 37.2508 36.3224 35.7257C35.884 34.1805 34.1525 33.2775 32.4648 33.6789Z" fill="white"/>
<path opacity="0.5" d="M34.7001 37.451C34.459 37.7319 34.1303 37.9526 33.7357 38.053C32.7932 38.2938 31.8069 37.772 31.5658 36.9092C31.3905 36.267 31.6316 35.6249 32.1576 35.2436C31.8946 34.9025 31.6754 34.5212 31.4562 34.14C30.4042 34.8222 29.8781 36.0463 30.2288 37.2503C30.6672 38.7954 32.3987 39.7185 34.0864 39.2971C34.8755 39.0964 35.5111 38.655 35.9276 38.073C35.5111 37.8724 35.0947 37.6717 34.7001 37.451Z" fill="white"/>
<path d="M6.77643 34.9029C7.71892 34.6822 8.70524 35.2039 8.94635 36.0667C9.18745 36.9296 8.61757 37.8326 7.67508 38.0533C6.73259 38.2741 5.74627 37.7523 5.50517 36.8895C5.26406 36.0266 5.83394 35.1236 6.77643 34.9029ZM6.42574 33.6788C4.73802 34.0802 3.72978 35.6654 4.16815 37.2105C4.60651 38.7557 6.33806 39.6787 8.02578 39.2774C9.71349 38.8761 10.7217 37.2908 10.3053 35.7457C9.845 34.2006 8.11345 33.2775 6.42574 33.6788Z" fill="white"/>
<path opacity="0.5" d="M8.63962 37.4711C8.39852 37.752 8.06974 37.9728 7.67521 38.053C6.73273 38.2738 5.7464 37.752 5.5053 36.8891C5.32995 36.247 5.59297 35.6048 6.09709 35.2236C5.83407 34.8824 5.61489 34.5011 5.41762 34.1199C4.36554 34.7821 3.81759 36.0062 4.16828 37.2102C4.60665 38.7554 6.33819 39.6785 8.02591 39.2771C8.81497 39.0965 9.47252 38.635 9.86705 38.053C9.42868 37.8925 9.03415 37.6918 8.63962 37.4711Z" fill="white"/>
<path d="M6.99588 7.03016C6.57944 7.03016 6.22874 6.70909 6.22874 6.32782C6.22874 4.68234 5.72462 3.4382 4.76021 2.61546C3.20401 1.27098 0.858744 1.41145 0.836826 1.41145C0.420377 1.45158 0.0477647 1.15058 0.00392799 0.769307C-0.0399087 0.388037 0.288867 0.0469004 0.705315 0.00676672C0.836826 0.00676672 3.73005 -0.193902 5.79037 1.55191C7.10548 2.65559 7.76303 4.26094 7.76303 6.30776C7.76303 6.70909 7.43425 7.03016 6.99588 7.03016Z" fill="white"/>
</svg>
